# xmcd
#
# Track frame offsets:
#  150
#  17039
#  31910
#  49087
#  68726
#  81741
#  99018
#  114218
#  133824
#  150288
#  167886
#  185884
#  200390
#  216097
#
# Disc length: 3098 seconds
#
# Revision: 0
# Processed by: cddbd v1.5.1PL2 Copyright (c) Steve Scherf et al.
# Submitted via: Collectorz.com_Music_Collector 6.11
#
DISCID=b90c180e
DTITLE=Various Artist - Totally Country [CD 1)
DYEAR=2006
DGENRE=Country
TTITLE0=Blaine Larsen - I Don't Know What She Said
TTITLE1=Danielle Peck - I Don't
TTITLE2=Eric Church - How 'Bout You
TTITLE3=Garth Brooks - That Girl Is A Cowboy
TTITLE4=Jake Owen - Yee Haw
TTITLE5=Jon Bon Jovi and Jennifer Nettles - Who Says You Can't Go Home
TTITLE6=Kenny Rogers - I Can't Unlove You
TTITLE7=Little Big Town - Bring It On Home
TTITLE8=Neal McCoy - Billy's Got His Beer Goggles On
TTITLE9=Phil Vassar - Last Day Of My Life
TTITLE10=Rockie Lynne - Lipstick
TTITLE11=SHeDAISY - I'm Taking The Wheel
TTITLE12=The Wreckers - Leave The Pieces
TTITLE13=Trent Willmon - On Again Tonight
EXTD=
EXTT0=
EXTT1=
EXTT2=
EXTT3=
EXTT4=
EXTT5=
EXTT6=
EXTT7=
EXTT8=
EXTT9=
EXTT10=
EXTT11=
EXTT12=
EXTT13=
PLAYORDER=
